<?xml version="1.0" encoding="utf-8"?>
<!-- Generator: Adobe Illustrator 24.3.0, SVG Export Plug-In . SVG Version: 6.00 Build 0)  -->
<svg version="1.1" xmlns="http://www.w3.org/2000/svg" xmlns:xlink="http://www.w3.org/1999/xlink" x="0px" y="0px"
	 viewBox="0 0 250 250" style="enable-background:new 0 0 250 250;" xml:space="preserve">
<style type="text/css">
	.st0{fill:#E76322;}
	.st1{fill:#7BB517;}
	.st2{fill:#0F0B01;}
	.st3{fill:#4D8CC6;}
	.st4{fill:#575656;}
</style>
<g id="Ebene_2">
</g>
<g id="Ebene_1">
	<path class="st0" d="M189.1,8.2c-16.7,0-30.3,13.5-30.3,30.3c0,16.7,13.5,30.3,30.3,30.3c16.7,0,30.3-13.5,30.3-30.3
		C219.3,21.7,205.8,8.2,189.1,8.2z M204.3,53.4l-4.7,0.4l-1-11.1l-11.1,1l-0.4-4.7l11.1-1l-1-11.1l4.7-0.4l1,11.1l11.1-1l0.4,4.7
		l-11.1,1L204.3,53.4z"/>
	<path class="st1" d="M90.1,201.6c-2.2,3.9-3.5,8.5-3.5,13.3c0,14.9,12,26.9,26.9,26.9c14.9,0,26.9-12,26.9-26.9
		c0-2-0.2-3.9-0.6-5.7c-4.7,1-9.5,1.5-14.5,1.5C112.5,210.7,100.5,207.4,90.1,201.6z"/>
	<path class="st2" d="M161.6,123.3c-4.5,0-8.3,2-11.4,6.1c-3.1,4.1-5.1,9.8-6.1,17.3h32.9c-0.2-7.2-1.7-13-4.5-17.1
		C169.8,125.4,166.2,123.3,161.6,123.3z"/>
	<path class="st2" d="M144,153.1c-0.2,3.3-0.2,5.7-0.2,7.2c0,12.1,2.5,21.6,7.4,28.4c3.7,5.2,8.5,8.4,14.5,9.6
		c15.5-10.5,26.8-26.8,30.5-45.9H144L144,153.1z"/>
	<path class="st2" d="M125.2,66.2c-39.9,0-72.3,32.4-72.3,72.3c0,1.6,0.1,3.2,0.2,4.7c10.5,0.9,18.8,9.7,18.8,20.5
		c0,6-2.6,11.3-6.6,15.1c6.4,9.4,14.9,17.3,24.9,22.9c10.4,5.8,22.4,9.1,35.1,9.1c5,0,9.8-0.5,14.5-1.5c4.1-0.8,8.1-2,11.9-3.5
		c-6.3-1.3-12-3.7-16.9-7.2c-1.8-1.3-3.4-2.6-5-4.2c-0.8-0.8-1.6-1.6-2.3-2.4c-7-7.9-10.5-17.8-10.5-29.8c0-12.9,4.2-23.4,12.7-31.6
		c8.4-8.2,19.3-12.3,32.7-12.3c12,0,21.6,3,29,8.9c2.3,1.9,4.3,4,6.1,6.3C194.8,95.9,163.5,66.2,125.2,66.2z"/>
	<path class="st3" d="M30.7,163.7c0-11.4,9.2-20.6,20.6-20.6s20.6,9.2,20.6,20.6c0,11.4-9.2,20.6-20.6,20.6S30.7,175,30.7,163.7
		L30.7,163.7z"/>
	<polygon class="st4" points="214.4,41.3 203.3,42.3 204.3,53.4 199.6,53.8 198.6,42.7 187.5,43.7 187.1,39 198.2,38.1 197.3,27 
		201.9,26.5 202.9,37.7 214,36.7 214.4,41.3 	"/>
</g>
</svg>
